<?xml version="1.0" encoding="utf-8"?>
<!-- Generator: Adobe Illustrator 24.0.2, SVG Export Plug-In . SVG Version: 6.00 Build 0)  -->
<svg version="1.1" id="Layer_1" xmlns="http://www.w3.org/2000/svg" xmlns:xlink="http://www.w3.org/1999/xlink" x="0px" y="0px"
	 viewBox="0 0 408.8 408.8" style="enable-background:new 0 0 408.8 408.8;" xml:space="preserve">
<style type="text/css">
	.st0{stroke:#000000;stroke-miterlimit:10;}
</style>
<path class="st0" d="M202.4,408.8V262.3h-36.6c-5.6,0-10.1-4.5-10.1-10.1v-44.4c0-5.6,4.5-10.1,10.1-10.1h36.7v-53.2
	c0-40.8,33.1-73.9,73.9-73.9h42.5c5.8,0,10.5,4.7,10.5,10.5v37.5c0,5.5-4.4,9.9-9.9,9.9h-29.7c-13,0-23.6,10.6-23.6,23.6v45.5h53.2
	c5.5,0,10,4.5,10,10v44.2c0,5.8-4.7,10.4-10.4,10.4h-52.9v146.5h88c30.2,0,54.7-24.5,54.7-54.7V54.7c0-30.2-24.5-54.7-54.7-54.7
	H54.7C24.5,0,0,24.5,0,54.7v299.4c0,30.2,24.5,54.7,54.7,54.7H202.4z"/>
</svg>
