<?xml version="1.0" encoding="utf-8"?>
<!-- Generator: Adobe Illustrator 24.0.2, SVG Export Plug-In . SVG Version: 6.00 Build 0)  -->
<svg version="1.1" id="Livello_1" xmlns="http://www.w3.org/2000/svg" xmlns:xlink="http://www.w3.org/1999/xlink" x="0px" y="0px"
	 viewBox="0 0 200 104.2" style="enable-background:new 0 0 200 104.2;" xml:space="preserve">
<style type="text/css">
	.st0{fill:#0D6F78;}
</style>
<title>1Tavola disegno 1</title>
<polygon points="100,104.2 100,104.2 75,104.2 50,34.8 25,104.2 0,104.2 37.5,0.1 62.5,0.1 87.5,69.5 100,35.2 112.5,0.1 137.5,0.1 
	"/>
<polygon class="st0" points="62.5,0.1 87.5,-0.2 100,34.8 87.5,69.5 "/>
<polygon points="137.5,69.5 150,104.2 175,104.2 150,34.8 "/>
<polygon class="st0" points="200,104.2 175,104.2 150,34.8 140,62.2 125,104.2 100,104.2 128,27.2 137.5,0.1 162.5,0.1 "/>
</svg>
