<?xml version="1.0" encoding="utf-8"?>
<!-- Generator: Adobe Illustrator 24.0.2, SVG Export Plug-In . SVG Version: 6.00 Build 0)  -->
<svg version="1.1" id="Livello_1" xmlns="http://www.w3.org/2000/svg" xmlns:xlink="http://www.w3.org/1999/xlink" x="0px" y="0px"
	 viewBox="0 0 21.2 11.1" style="enable-background:new 0 0 21.2 11.1;" xml:space="preserve">
<style type="text/css">
	.st0{fill:#0D6F78;}
	.st1{fill:none;stroke:#000000;stroke-width:3.000661e-02;stroke-miterlimit:10;}
</style>
<g>
	<polygon class="st0" points="10.6,4.2 9.3,7.7 7.2,1.7 6.6,0 9.1,0 	"/>
	<path class="st0" d="M6.6,0l0.6,1.7L6.6,0z"/>
	<polygon class="st0" points="11.9,7.6 10.6,11.1 9.4,7.6 10.6,4.2 	"/>
	<polyline points="10.6,4.2 12.1,0 14.6,0 13.4,3.4 11.9,7.6 10.6,11.1 10.6,11.1 8.1,11.1 5.3,3.4 2.5,11.1 0,11.1 4,0 6.6,0 
		7.2,1.7 9.3,7.7 	"/>
	<polygon points="14.6,6.9 16.2,11.1 18.7,11.1 15.9,3.4 	"/>
	<polyline class="st1" points="8.1,11.1 5.3,3.4 2.5,11.1 	"/>
	<polygon class="st0" points="21.2,11.1 18.7,11.1 15.9,3.4 14.6,6.9 13.1,11.1 10.6,11.1 13.4,3.4 14.6,0 17.2,0 	"/>
</g>
</svg>
