<?xml version="1.0" encoding="utf-8"?>
<!-- Generator: Adobe Illustrator 24.0.2, SVG Export Plug-In . SVG Version: 6.00 Build 0)  -->
<svg version="1.1" id="Livello_1" xmlns="http://www.w3.org/2000/svg" xmlns:xlink="http://www.w3.org/1999/xlink" x="0px" y="0px"
	 viewBox="0 0 21.2 11.1" style="enable-background:new 0 0 21.2 11.1;" xml:space="preserve">
<style type="text/css">
	.st0{fill:#0D6F78;}
	.st1{stroke:#000000;stroke-width:3.000000e-02;stroke-miterlimit:10;}
	.st2{fill:none;stroke:#000000;stroke-width:3.000000e-02;stroke-miterlimit:10;}
	.st3{fill:none;stroke:#000000;stroke-width:0.3;stroke-linejoin:round;stroke-miterlimit:10;}
	.st4{fill:none;stroke:#000000;stroke-width:0.2316;stroke-linejoin:round;stroke-miterlimit:10;}
	.st5{stroke:#000000;stroke-width:0.3;stroke-linejoin:round;stroke-miterlimit:10;}
	.st6{fill:#0D6F78;stroke:#000000;stroke-width:0.3;stroke-linejoin:round;stroke-miterlimit:10;}
	.st7{fill:#0D6F78;stroke:#000000;stroke-width:0.3;stroke-miterlimit:10;}
	.st8{fill:none;stroke:#000000;stroke-width:3.000661e-02;stroke-miterlimit:10;}
	.st9{stroke:#000000;stroke-width:3.036443e-02;stroke-miterlimit:10;}
	.st10{fill:none;stroke:#000000;stroke-width:3.036443e-02;stroke-miterlimit:10;}
</style>
<rect x="-22.1" y="16.1" transform="matrix(0.9348 -0.3553 0.3553 0.9348 -10.4692 -5.9171)" width="1.5" height="18.9"/>
<rect x="-45.1" y="19.6" transform="matrix(0.929 0.37 -0.37 0.929 8.0582 18.5359)" class="st0" width="1.6" height="21.4"/>
<rect x="-28.5" y="19" transform="matrix(0.929 0.37 -0.37 0.929 8.5692 12.3472)" class="st0" width="1.3" height="19"/>
<rect x="-35.8" y="17.6" transform="matrix(0.9312 -0.3645 0.3645 0.9312 -12.5616 -10.9058)" class="st0" width="1.3" height="20.4"/>
<path class="st0" d="M77.5-6.2v18.9H62.1V-6.2c0.2,0,0.5,0.1,0.6,0.4l6.2,16.1l0.3,0.8c0.2,0.5,1,0.5,1.2,0l6.5-16.9
	C77-6,77.3-6.2,77.5-6.2z"/>
<path d="M1.7-48.5c0-1.8-1.5-3.3-3.3-3.3s-3.3,1.5-3.3,3.3l0,0v7.9h-3.3v-7.9c0-3.6,3-6.6,6.6-6.6s6.6,3,6.6,6.6v7.9H1.7V-48.5
	L1.7-48.5z"/>
<path d="M11.6-48.5c0-1.8-1.5-3.3-3.3-3.3S5-50.3,5-48.5l0,0v7.9H1.7v-7.9c0-3.6,3-6.6,6.6-6.6s6.6,3,6.6,6.6v7.9h-3.3V-48.5
	L11.6-48.5z"/>
<path class="st0" d="M-31.5-7.8c0-1.8-1.5-3.3-3.3-3.3s-3.3,1.5-3.3,3.3l0,0V5.1h-3.3V-7.8c0-3.6,3-6.6,6.6-6.6c3.6,0,6.6,3,6.6,6.6
	V5.1h-3.3V-7.8L-31.5-7.8z"/>
<path class="st0" d="M24.8-48.5v7.9h-3.3v-7.9c0-1.8-1.5-3.3-3.3-3.3c-1.5,0-2.4,0.9-3,1.8c0-1.2-0.6-2.4-1.5-3.3
	c1.2-1.2,2.7-1.8,4.5-1.8C21.8-55.1,24.8-52.1,24.8-48.5z"/>
<path d="M41.1-27.6V-35c0-3.6,3-6.6,6.6-6.6c3.6,0,6.6,3,6.6,6.6v7.5H41.1z"/>
<path d="M54.3-27.6V-35c0-3.6,3-6.6,6.6-6.6c3.6,0,6.6,3,6.6,6.6v7.5H54.3z"/>
<path d="M46,11.1c0.2,0.5,1,0.5,1.2,0l6.5-16.9c0.2-0.5,1-0.5,1.2,0l7.1,18.5H31.2l7.1-18.5c0.2-0.6,1-0.6,1.2,0L46,11.1z"/>
<path d="M-10.1-16.4c0.2,0.5,1,0.5,1.2,0l6.5-16.9c0.2-0.5,1-0.5,1.2,0l7.1,18.5H-25l7.1-18.5c0.2-0.6,1-0.6,1.2,0L-10.1-16.4z"/>
<path d="M98.2,1.7c0.2,0.5,1,0.5,1.2,0l6.5-16.9c0.2-0.5,1-0.5,1.2,0l7.1,18.5H83.4l7.1-18.5c0.2-0.6,1-0.6,1.2,0L98.2,1.7z"/>
<path class="st0" d="M106.5-27.6L99.4-9.1c-0.2,0.6-1,0.6-1.2,0L91.7-26c-0.2-0.5-1-0.5-1.2,0L84-9.1c-0.1,0.3-0.4,0.4-0.6,0.4
	v-18.9H106.5z"/>
<path d="M-41.8,30.6"/>
<path d="M-31.8,36.4c0.2,0.5,1,0.5,1.2,0l6.5-16.9c0.2-0.5,1-0.5,1.2,0l7.1,18.5h-30.9l7.1-18.5c0.2-0.6,1-0.6,1.2,0L-31.8,36.4z"/>
<path class="st0" d="M-23.5,17.9l-7.1,18.5c-0.2,0.6-1,0.6-1.2,0l-6.5-16.9c-0.2-0.5-1-0.5-1.2,0l-6.5,16.9
	c-0.1,0.3-0.4,0.4-0.6,0.4V17.9H-23.5z"/>
<path class="st0" d="M65.9-9.7v-18.5H42.8l7.1,18.5c0.2,0.6,1,0.6,1.2,0l6.5-16.9c0,0,0,0,0,0c0.2-0.5,1-0.5,1.2,0l6.5,16.9
	C65.4-9.5,65.9-9.5,65.9-9.7z"/>
<path d="M93,49.2H54.3l8.9-18.5c0.3-0.6,1.2-0.6,1.5,0l8.1,16.9c0,0,0,0,0,0c0.3,0.5,1.2,0.5,1.5,0l8.1-16.9c0.3-0.5,1.2-0.5,1.5,0
	L93,49.2z"/>
<path class="st0" d="M93,36.8V18.3H64l8.9,18.5c0.3,0.6,1.3,0.6,1.5,0l8.1-16.9c0,0,0,0,0,0c0.3-0.5,1.2-0.5,1.5,0l8.1,16.9
	C92.3,37.1,92.9,37.1,93,36.8z"/>
<path d="M-94.9,5.1h23.4l-5.4-11.2c-0.2-0.3-0.8-0.3-0.9,0l-4.9,10.3c0,0,0,0,0,0c-0.2,0.3-0.8,0.3-0.9,0l-4.9-10.3
	c-0.2-0.3-0.8-0.3-0.9,0L-94.9,5.1z"/>
<path class="st0" d="M-94.9-2.4v-11.2h17.6l-5.4,11.2c-0.2,0.3-0.8,0.3-0.9,0l-4.9-10.2c0,0,0,0,0,0c-0.2-0.3-0.7-0.3-0.9,0
	l-4.9,10.2C-94.5-2.2-94.8-2.2-94.9-2.4z"/>
<path d="M-46.7-7.8c0-1.8-1.5-3.3-3.3-3.3c-1.8,0-3.3,1.5-3.3,3.3l0,0V5.1h-3.3V-7.8c0-3.6,3-6.6,6.6-6.6c3.6,0,6.6,3,6.6,6.6V5.1
	h-3.3V-7.8L-46.7-7.8z"/>
<path d="M-36.8-7.8c0-1.8-1.5-3.3-3.3-3.3s-3.3,1.5-3.3,3.3l0,0V5.1h-3.3V-7.8c0-3.6,3-6.6,6.6-6.6c3.6,0,6.6,3,6.6,6.6V5.1h-3.3
	V-7.8L-36.8-7.8z"/>
<rect x="-17.2" y="-13.8" transform="matrix(0.9915 0.1298 -0.1298 0.9915 -0.6992 2.0985)" width="1.5" height="18.9"/>
<rect x="-14.8" y="-13.8" transform="matrix(0.9915 -0.1298 0.1298 0.9915 0.4416 -1.855)" width="1.5" height="18.9"/>
<g>
	<polygon class="st0" points="28.2,-32.4 29.7,-32.4 31.4,-19.6 33,-32.4 34.5,-32.4 32.1,-13.9 30.6,-13.9 	"/>
	<polygon class="st0" points="37,-13.9 35.4,-13.9 33,-32.4 34.5,-32.4 	"/>
</g>
<g>
	<polygon class="st1" points="24.2,-13.9 22.7,-13.9 21,-26.7 19.3,-13.9 17.8,-13.9 20.2,-32.4 21.8,-32.4 	"/>
	<polygon class="st1" points="29,-13.9 27.5,-13.9 25.8,-26.7 24.2,-13.9 22.7,-13.9 25.1,-32.4 26.6,-32.4 	"/>
	<polyline class="st2" points="22.7,-13.9 21,-26.7 19.3,-13.9 	"/>
</g>
<polygon class="st3" points="47.7,-65.1 41.6,-68.8 41.6,-53.3 47.7,-49.6 "/>
<polygon class="st3" points="61.2,-65.1 55,-68.8 55,-53.3 61.2,-49.6 "/>
<polygon class="st3" points="47.7,-65.1 61.2,-49.6 55,-53.3 41.6,-68.9 "/>
<polygon class="st4" points="47.7,-61.8 53.9,-58.1 61.2,-65.1 55,-68.8 "/>
<polygon class="st5" points="1.4,-86 -4.8,-89.7 -4.8,-74.1 1.4,-70.4 "/>
<polygon class="st6" points="8.7,-77.5 8.7,-80 14.9,-85.9 14.9,-70.4 "/>
<polygon class="st6" points="1.4,-85.9 2.9,-84.1 7.3,-79.1 8.7,-77.5 14.9,-70.4 8.7,-74.1 1.4,-82.6 "/>
<polygon class="st5" points="7.6,-79 8.7,-80 14.9,-85.9 8.7,-89.7 2.9,-84.1 "/>
<g>
	<path d="M-78.4,30.6"/>
	<polygon class="st7" points="-70,32.5 -76.2,28.8 -76.2,44.3 -70,48 	"/>
	<polygon class="st3" points="-62.7,40.9 -62.7,38.4 -56.6,32.5 -56.6,48 	"/>
	<polygon class="st3" points="-70,32.5 -68.5,34.3 -64.1,39.3 -62.7,40.9 -56.6,48 -62.7,44.3 -70,35.8 	"/>
	<polygon class="st7" points="-63.9,39.5 -62.7,38.4 -56.6,32.5 -62.7,28.8 -68.5,34.3 	"/>
</g>
<polygon class="st0" points="10.6,4.2 9.3,7.7 7.2,1.7 6.6,0 9.1,0 "/>
<polygon class="st0" points="6.6,0 7.2,1.7 6.6,0 "/>
<polygon class="st0" points="11.9,7.6 10.6,11.1 9.4,7.6 10.6,4.2 "/>
<polygon points="14.6,0 13.4,3.4 11.9,7.6 10.6,11.1 10.6,11.1 8.1,11.1 5.3,3.4 2.5,11.1 0,11.1 4,0 6.6,0 7.2,1.7 9.3,7.7 
	9.4,7.6 10.6,4.2 12.1,0 "/>
<polygon points="14.6,6.9 16.2,11.1 18.7,11.1 15.9,3.4 "/>
<polyline class="st8" points="8.1,11.1 5.3,3.4 2.5,11.1 "/>
<polygon class="st0" points="21.2,11.1 18.7,11.1 15.9,3.4 14.6,6.9 13.1,11.1 10.6,11.1 13.4,3.4 14.6,0 17.2,0 "/>
<g>
	<polygon class="st9" points="10.8,-2 8.3,-2 5.4,-9.7 2.6,-2 0,-2 4.1,-13.1 6.8,-13.1 	"/>
	<polygon class="st9" points="19.1,-2 16.6,-2 13.7,-9.7 10.8,-2 8.3,-2 12.4,-13.1 15,-13.1 	"/>
	<polyline class="st10" points="8.3,-2 5.4,-9.7 2.6,-2 	"/>
</g>
<g>
	<polygon class="st0" points="6.5,-13.1 9.1,-13.1 13.2,-2 10.6,-2 	"/>
	<polygon class="st0" points="21.5,-2 18.9,-2 16.1,-9.7 13.2,-2 10.6,-2 14.8,-13.1 17.4,-13.1 	"/>
</g>
<g>
	<polygon class="st0" points="6.5,13.8 9.1,13.8 13.2,25 10.6,25 	"/>
	<polygon class="st0" points="21.5,25 18.9,25 16.1,17.3 13.2,25 10.6,25 14.8,13.8 17.4,13.8 	"/>
</g>
<g>
	<polygon class="st9" points="10.8,25 8.3,25 5.4,17.3 2.6,25 0,25 4.1,13.8 6.8,13.8 	"/>
	<polygon class="st9" points="19.1,25 16.6,25 13.7,17.3 10.8,25 8.3,25 12.4,13.8 15,13.8 	"/>
	<polyline class="st10" points="8.3,25 5.4,17.3 2.6,25 	"/>
</g>
</svg>
