<?xml version="1.0" encoding="utf-8"?>
<!-- Generator: Adobe Illustrator 24.0.2, SVG Export Plug-In . SVG Version: 6.00 Build 0)  -->
<svg version="1.1" id="Livello_1" xmlns="http://www.w3.org/2000/svg" xmlns:xlink="http://www.w3.org/1999/xlink" x="0px" y="0px"
	 viewBox="0 0 12.9 10.3" style="enable-background:new 0 0 12.9 10.3;" xml:space="preserve">
<style type="text/css">
	.st0{fill:#0D6F78;}
</style>
<path d="M3.4-9.4c0-0.6-0.5-1.1-1.1-1.1S1.2-10,1.2-9.4l0,0v4.3H0.1v-4.3c0-1.2,1-2.2,2.2-2.2s2.2,1,2.2,2.2v4.3H3.4V-9.4L3.4-9.4z"
	/>
<path d="M6.7-9.4c0-0.6-0.5-1.1-1.1-1.1S4.5-10,4.5-9.4l0,0v4.3H3.4v-4.3c0-1.2,1-2.2,2.2-2.2s2.2,1,2.2,2.2v4.3H6.7V-9.4L6.7-9.4z"
	/>
<path class="st0" d="M-7.7,6c0-0.6-0.5-1.1-1.1-1.1c-0.6,0-1.1,0.5-1.1,1.1l0,0v4.3H-11V6c0-1.2,1-2.2,2.2-2.2s2.2,1,2.2,2.2v4.3
	h-1.1V6L-7.7,6z"/>
<path class="st0" d="M11.1-9.4v4.3H10v-4.3c0-0.6-0.5-1.1-1.1-1.1c-0.5,0-0.8,0.3-1,0.6c0-0.4-0.2-0.8-0.5-1.1
	c0.4-0.4,0.9-0.6,1.5-0.6C10.1-11.6,11.1-10.6,11.1-9.4z"/>
<path class="st0" d="M26.1,8.5V2.3h7.7l-2.4,6.2c-0.1,0.2-0.3,0.2-0.4,0l-2.2-5.6c0,0,0,0,0,0c-0.1-0.2-0.3-0.2-0.4,0l-2.2,5.6
	C26.3,8.6,26.1,8.6,26.1,8.5z"/>
<path d="M31.2,11H20.9l2.4-6.2c0.1-0.2,0.3-0.2,0.4,0l2.2,5.6c0,0,0,0,0,0c0.1,0.2,0.3,0.2,0.4,0l2.2-5.6c0.1-0.2,0.3-0.2,0.4,0
	L31.2,11z"/>
<path class="st0" d="M10.3,20.2v-6.2H2.6l2.4,6.2c0.1,0.2,0.3,0.2,0.4,0l2.2-5.6c0,0,0,0,0,0c0.1-0.2,0.3-0.2,0.4,0l2.2,5.6
	C10.1,20.3,10.3,20.3,10.3,20.2z"/>
<path d="M12.9,10.3H0l3-6.2c0.1-0.2,0.4-0.2,0.5,0l2.7,5.6c0,0,0,0,0,0c0.1,0.2,0.4,0.2,0.5,0l2.7-5.6c0.1-0.2,0.4-0.2,0.5,0
	L12.9,10.3z"/>
<path class="st0" d="M12.9,6.2V0H3.2l3,6.2c0.1,0.2,0.4,0.2,0.5,0l2.7-5.6c0,0,0,0,0,0c0.1-0.2,0.4-0.2,0.5,0l2.7,5.6
	C12.7,6.3,12.9,6.3,12.9,6.2z"/>
<path d="M-12.7,6c0-0.6-0.5-1.1-1.1-1.1c-0.6,0-1.1,0.5-1.1,1.1l0,0v4.3H-16V6c0-1.2,1-2.2,2.2-2.2s2.2,1,2.2,2.2v4.3h-1.1V6
	L-12.7,6z"/>
<path d="M-9.4,6c0-0.6-0.5-1.1-1.1-1.1c-0.6,0-1.1,0.5-1.1,1.1l0,0v4.3h-1.1V6c0-1.2,1-2.2,2.2-2.2s2.2,1,2.2,2.2v4.3h-1.1V6L-9.4,6
	z"/>
</svg>
